<svg xmlns="http://www.w3.org/2000/svg" width="114.799" height="62.923" viewBox="0 0 114.799 62.923">
  <g id="ロゴ" transform="translate(-529.799 -1911.63)">
    <g id="ロゴ-2" data-name="ロゴ">
      <path id="Kirameki_Beauty_Labo" data-name="Kirameki Beauty Labo" d="M639.712,1974.3a3.3,3.3,0,0,1-1.064-.7,3.176,3.176,0,0,1-.709-1.049,3.461,3.461,0,0,1,0-2.588,3.194,3.194,0,0,1,1.756-1.733,3.642,3.642,0,0,1,2.64,0,3.257,3.257,0,0,1,1.059.694,3.165,3.165,0,0,1,.7,1.044,3.472,3.472,0,0,1,0,2.593,3.2,3.2,0,0,1-.7,1.045,3.247,3.247,0,0,1-1.055.7,3.364,3.364,0,0,1-1.307.253A3.413,3.413,0,0,1,639.712,1974.3Zm.315-4.785a1.691,1.691,0,0,0-.661.693,2.231,2.231,0,0,0-.233,1.049,2.386,2.386,0,0,0,.134.819,1.855,1.855,0,0,0,.383.635,1.677,1.677,0,0,0,.6.41,2,2,0,0,0,.772.144,1.918,1.918,0,0,0,.992-.252,1.711,1.711,0,0,0,.661-.707,2.26,2.26,0,0,0,.233-1.048,2.342,2.342,0,0,0-.135-.815,1.819,1.819,0,0,0-.385-.63,1.687,1.687,0,0,0-.6-.4,2.021,2.021,0,0,0-.768-.14A1.941,1.941,0,0,0,640.027,1969.515Zm-40.568,4.7a2.4,2.4,0,0,1-.933-.922,2.661,2.661,0,0,1-.338-1.346v-3.854h1.419v3.935a1.293,1.293,0,0,0,.161.657,1.1,1.1,0,0,0,.445.428,1.323,1.323,0,0,0,.625.149,1.278,1.278,0,0,0,.628-.149,1.094,1.094,0,0,0,.427-.423,1.3,1.3,0,0,0,.158-.653v-3.944h1.418v3.863a2.669,2.669,0,0,1-.332,1.342,2.388,2.388,0,0,1-.925.918,3,3,0,0,1-2.752,0Zm-26.39.239v-6.359h1.41v6.359Zm-34.03,0v-6.359h1.41v6.359Zm94.607,0h-1.391v-6.358h2.721a2.194,2.194,0,0,1,1.037.226,1.584,1.584,0,0,1,.876,1.44,1.4,1.4,0,0,1-.377.991,1.592,1.592,0,0,1-.392.3,1.851,1.851,0,0,1,.548.4,1.626,1.626,0,0,1,.436,1.152,1.736,1.736,0,0,1-.992,1.6,2.532,2.532,0,0,1-1.154.244Zm1.176-1.1a.854.854,0,0,0,.646-.243.825.825,0,0,0,.234-.594.859.859,0,0,0-.108-.433.776.776,0,0,0-.3-.3.954.954,0,0,0-.472-.108h-1.176v1.675Zm-.117-2.747a.868.868,0,0,0,.566-.175.654.654,0,0,0,.215-.536.64.64,0,0,0-.215-.526.868.868,0,0,0-.566-.176h-1.059v1.413Zm-4.615,3.846-.416-1.153h-2.484l-.422,1.153H625.3l2.515-6.358h1.275l2.487,6.358Zm-.832-2.306-.818-2.266-.829,2.266Zm-8.86,2.306h-1.552v-9.082h2.014v7.306h4.015v1.776Zm-8.642,0V1971.8l-2.255-3.682v1.2h-1.984v5.124h-1.41v-5.124h-1.985v-1.234h6.995l1.352,2.321,1.351-2.321h1.6l-2.254,3.653v2.7ZM613,1971.311Zm-16.8,3.134-.416-1.153h-2.485l-.422,1.153H591.41l2.514-6.358H595.2l2.488,6.358Zm-.832-2.306-.818-2.266-.829,2.266Zm-7.923,2.306h-1.077v-6.358h4.507v1.216h-3.1v1.306H590.6v1.179h-2.829v1.432h3.143v1.225Zm-7.05,0H578.4v-9.082h3.886a3.141,3.141,0,0,1,1.481.322,2.258,2.258,0,0,1,1.251,2.057,2,2,0,0,1-.539,1.415,2.265,2.265,0,0,1-.559.432,2.644,2.644,0,0,1,.784.572,2.326,2.326,0,0,1,.622,1.646,2.525,2.525,0,0,1-.365,1.345,2.553,2.553,0,0,1-1.052.946,3.617,3.617,0,0,1-1.648.347Zm1.68-1.57a1.221,1.221,0,0,0,.923-.347,1.18,1.18,0,0,0,.334-.85,1.228,1.228,0,0,0-.154-.617,1.114,1.114,0,0,0-.43-.424,1.364,1.364,0,0,0-.673-.155h-1.68v2.393Zm-.167-3.923a1.239,1.239,0,0,0,.808-.251.929.929,0,0,0,.308-.765.912.912,0,0,0-.308-.752,1.239,1.239,0,0,0-.808-.251h-1.514v2.02Zm-11.166,5.493-2.425-3.128v3.128H566.9v-6.358h1.41v2.868l2.344-2.868H572.4l-2.565,3.026,2.655,3.332Zm-8.279,0h-1.077v-6.358h4.507v1.216h-3.1v1.306h2.829v1.179h-2.829v1.432h3.143v1.225Zm-3.7,0v-3.515l-1.373,2.146h-.934l-1.373-2.158v3.527h-1.4v-6.358h1.006l2.24,3.5,2.232-3.5h1.015v6.358ZM557.179,1971.986Zm-5.665,2.459-.416-1.153h-2.485l-.422,1.153H545.12l-1.891-2.621h-.147v2.621h-1.41v-6.358h2.587a2.433,2.433,0,0,1,1.1.239,1.843,1.843,0,0,1,.745.661,1.9,1.9,0,0,1,0,1.949,1.81,1.81,0,0,1-.754.652,2.291,2.291,0,0,1-.595.188l1.99,2.612,2.493-6.3h1.275l2.487,6.358Zm-.832-2.306-.818-2.266-.829,2.266Zm-6.594-1.36a.91.91,0,0,0,.651-.215.845.845,0,0,0,0-1.153.871.871,0,0,0-.646-.225h-1.014v1.593Zm-8.351,3.666-3.463-4.469v4.469h-2.014v-9.082h2.014v4.1l3.348-4.1h2.488l-3.664,4.322,3.793,4.76Z" fill="#333"/>
      <path id="KBL" d="M617.57,1958.366h-1.241V1911.63h2.206v44.732H644.6v2Zm-42.265,0H573.1V1911.63h16.686a16.1,16.1,0,0,1,6.929,1.382,10.6,10.6,0,0,1,4.55,3.941,11.274,11.274,0,0,1,1.62,6.153,11.681,11.681,0,0,1-2.068,7.017,10.451,10.451,0,0,1-4.531,3.52,12.6,12.6,0,0,1,6.22,4.051,11.96,11.96,0,0,1,2.655,7.812,11.906,11.906,0,0,1-7.1,11.27,18.615,18.615,0,0,1-8,1.589Zm15.1-2a13.311,13.311,0,0,0,9.067-2.974,9.934,9.934,0,0,0,3.413-7.881,10.22,10.22,0,0,0-5.584-9.4,12.814,12.814,0,0,0-6.068-1.383H575.305v21.641Zm.482-23.507a9.749,9.749,0,0,0,7.171-2.593,9.428,9.428,0,0,0,2.62-7.017,8.826,8.826,0,0,0-2.965-7.052,11.724,11.724,0,0,0-7.929-2.558H575.305v19.22Zm-30.129,25.511-28.751-23.71v23.71H529.8V1911.63h2.207v21.812l28.13-21.812h3.379l-28.945,22.387,29.634,24.349Z" fill="#333"/>
    </g>
    <path id="Color_Overlay" data-name="Color Overlay" d="M639.712,1974.3a3.3,3.3,0,0,1-1.064-.7,3.176,3.176,0,0,1-.709-1.049,3.461,3.461,0,0,1,0-2.588,3.194,3.194,0,0,1,1.756-1.733,3.642,3.642,0,0,1,2.64,0,3.257,3.257,0,0,1,1.059.694,3.165,3.165,0,0,1,.7,1.044,3.472,3.472,0,0,1,0,2.593,3.2,3.2,0,0,1-.7,1.045,3.247,3.247,0,0,1-1.055.7,3.364,3.364,0,0,1-1.307.253A3.413,3.413,0,0,1,639.712,1974.3Zm.315-4.785a1.691,1.691,0,0,0-.661.693,2.231,2.231,0,0,0-.233,1.049,2.386,2.386,0,0,0,.134.819,1.855,1.855,0,0,0,.383.635,1.677,1.677,0,0,0,.6.41,2,2,0,0,0,.772.144,1.918,1.918,0,0,0,.992-.252,1.711,1.711,0,0,0,.661-.707,2.26,2.26,0,0,0,.233-1.048,2.342,2.342,0,0,0-.135-.815,1.819,1.819,0,0,0-.385-.63,1.687,1.687,0,0,0-.6-.4,2.021,2.021,0,0,0-.768-.14A1.941,1.941,0,0,0,640.027,1969.515Zm-40.568,4.7a2.4,2.4,0,0,1-.933-.922,2.661,2.661,0,0,1-.338-1.346v-3.854h1.419v3.935a1.293,1.293,0,0,0,.161.657,1.1,1.1,0,0,0,.445.428,1.323,1.323,0,0,0,.625.149,1.278,1.278,0,0,0,.628-.149,1.094,1.094,0,0,0,.427-.423,1.3,1.3,0,0,0,.158-.653v-3.944h1.418v3.863a2.669,2.669,0,0,1-.332,1.342,2.388,2.388,0,0,1-.925.918,3,3,0,0,1-2.752,0Zm-26.39.239v-6.359h1.41v6.359Zm-34.03,0v-6.359h1.41v6.359Zm94.607,0h-1.391v-6.358h2.721a2.194,2.194,0,0,1,1.037.226,1.584,1.584,0,0,1,.876,1.44,1.4,1.4,0,0,1-.377.991,1.579,1.579,0,0,1-.392.3,1.86,1.86,0,0,1,.548.4,1.626,1.626,0,0,1,.436,1.152,1.736,1.736,0,0,1-.992,1.6,2.532,2.532,0,0,1-1.154.244Zm0-1.1h1.176a.854.854,0,0,0,.646-.243.825.825,0,0,0,.234-.594.859.859,0,0,0-.108-.433.776.776,0,0,0-.3-.3.954.954,0,0,0-.472-.108h-1.176Zm0-2.747h1.059a.868.868,0,0,0,.566-.175.654.654,0,0,0,.215-.536.64.64,0,0,0-.215-.526.868.868,0,0,0-.566-.176h-1.059Zm-3.556,3.846-.416-1.153h-2.484l-.422,1.153H625.3l2.515-6.358h1.275l2.487,6.358Zm-2.479-2.306h1.647l-.818-2.266Zm-7.214,2.306h-1.552v-9.082h2.014v7.306h4.015v1.776Zm-8.642,0V1971.8l-2.255-3.681v1.2h-1.984v5.124h-1.41v-5.124h-1.985v-1.234h6.995l1.352,2.321,1.351-2.321h1.6l-2.254,3.653v2.7Zm-15.561,0-.416-1.153H593.3l-.422,1.153H591.41l2.514-6.358H595.2l2.488,6.358Zm-2.48-2.306h1.647l-.817-2.266Zm-6.276,2.306h-1.077v-6.358h4.507v1.216h-3.1v1.306H590.6v1.179h-2.829v1.432h3.143v1.225Zm-7.05,0H578.4v-9.082h3.886a3.141,3.141,0,0,1,1.481.322,2.258,2.258,0,0,1,1.251,2.057,2,2,0,0,1-.539,1.415,2.276,2.276,0,0,1-.559.432,2.65,2.65,0,0,1,.784.572,2.326,2.326,0,0,1,.622,1.646,2.525,2.525,0,0,1-.365,1.345,2.553,2.553,0,0,1-1.052.946,3.617,3.617,0,0,1-1.648.347Zm0-1.57h1.68a1.221,1.221,0,0,0,.923-.347,1.18,1.18,0,0,0,.334-.85,1.228,1.228,0,0,0-.154-.617,1.114,1.114,0,0,0-.43-.424,1.364,1.364,0,0,0-.673-.155h-1.68Zm0-3.923H581.9a1.239,1.239,0,0,0,.808-.251.929.929,0,0,0,.308-.765.912.912,0,0,0-.308-.752,1.239,1.239,0,0,0-.808-.251h-1.514Zm-9.653,5.493-2.425-3.128v3.128H566.9v-6.358h1.41v2.867l2.344-2.867H572.4l-2.565,3.026,2.655,3.332Zm-8.279,0h-1.077v-6.358h4.507v1.216h-3.1v1.306h2.829v1.179h-2.829v1.432h3.143v1.225Zm-3.7,0v-3.515l-1.373,2.146h-.934l-1.373-2.158v3.527h-1.4v-6.358h1.006l2.239,3.5,2.232-3.5h1.015v6.358Zm-7.246,0-.416-1.153h-2.485l-.422,1.153H545.12l-1.891-2.621h-.147v2.621h-1.41v-6.358h2.587a2.433,2.433,0,0,1,1.1.239,1.843,1.843,0,0,1,.745.661,1.9,1.9,0,0,1,0,1.949,1.81,1.81,0,0,1-.754.652,2.279,2.279,0,0,1-.595.188l1.99,2.612,2.493-6.3h1.275l2.487,6.358Zm-2.479-2.306h1.647l-.818-2.266Zm-5.953-1.36h1.005a.91.91,0,0,0,.651-.215.845.845,0,0,0,0-1.153.871.871,0,0,0-.646-.225h-1.014Zm-7.346,3.666-3.463-4.469v4.469h-2.014v-9.082h2.014v4.1l3.348-4.1h2.488l-3.665,4.322,3.794,4.76Zm81.833-16.079h-1.241V1911.63h2.206v44.732H644.6v2Zm-42.265,0H573.1V1911.63h16.686a16.1,16.1,0,0,1,6.929,1.382,10.6,10.6,0,0,1,4.55,3.941,11.274,11.274,0,0,1,1.62,6.153,11.681,11.681,0,0,1-2.068,7.017,10.453,10.453,0,0,1-4.531,3.52,12.6,12.6,0,0,1,6.22,4.051,11.96,11.96,0,0,1,2.655,7.812,11.906,11.906,0,0,1-7.1,11.27,18.615,18.615,0,0,1-8,1.589Zm0-2h15.1a13.311,13.311,0,0,0,9.067-2.974,9.934,9.934,0,0,0,3.413-7.881,10.22,10.22,0,0,0-5.584-9.4,12.814,12.814,0,0,0-6.068-1.383H575.305Zm0-23.507h15.582a9.749,9.749,0,0,0,7.171-2.593,9.428,9.428,0,0,0,2.62-7.017,8.826,8.826,0,0,0-2.965-7.052,11.724,11.724,0,0,0-7.929-2.558H575.305Zm-14.548,25.511-28.751-23.71v23.71H529.8V1911.63h2.207v21.812l28.13-21.812h3.379l-28.945,22.387,29.634,24.349Z" fill="#fa7da3"/>
  </g>
</svg>
