<svg xmlns="http://www.w3.org/2000/svg" width="144.134" height="78.021" viewBox="0 0 144.134 78.021">
  <g id="ロゴ" transform="translate(-649.466 -5139.933)">
    <g id="ロゴ-2" data-name="ロゴ">
      <path id="Kirameki_Beauty_Labo" data-name="Kirameki Beauty Labo" d="M787.466,5217.641a4.15,4.15,0,0,1-1.336-.871,3.947,3.947,0,0,1-.892-1.3,4.239,4.239,0,0,1,0-3.21,3.985,3.985,0,0,1,2.205-2.149,4.618,4.618,0,0,1,3.314,0,4.092,4.092,0,0,1,1.331.859,3.936,3.936,0,0,1,.884,1.295,4.251,4.251,0,0,1,0,3.215,3.968,3.968,0,0,1-.879,1.3,4.067,4.067,0,0,1-1.325.865,4.27,4.27,0,0,1-1.64.313A4.328,4.328,0,0,1,787.466,5217.641Zm.394-5.933a2.1,2.1,0,0,0-.829.859,2.745,2.745,0,0,0-.293,1.3,2.917,2.917,0,0,0,.17,1.016,2.278,2.278,0,0,0,.479.787,2.067,2.067,0,0,0,.749.508,2.554,2.554,0,0,0,.969.179,2.429,2.429,0,0,0,1.247-.313,2.126,2.126,0,0,0,.828-.876,2.772,2.772,0,0,0,.293-1.3,2.865,2.865,0,0,0-.169-1.01,2.248,2.248,0,0,0-.485-.782,2.111,2.111,0,0,0-.749-.5,2.6,2.6,0,0,0-.965-.174A2.464,2.464,0,0,0,787.86,5211.708Zm-50.933,5.822a2.992,2.992,0,0,1-1.172-1.145,3.261,3.261,0,0,1-.423-1.669v-4.777h1.781v4.878a1.588,1.588,0,0,0,.2.816,1.364,1.364,0,0,0,.558.529,1.673,1.673,0,0,0,.783.185,1.622,1.622,0,0,0,.79-.185,1.372,1.372,0,0,0,.536-.524,1.6,1.6,0,0,0,.2-.811v-4.889h1.781v4.789a3.268,3.268,0,0,1-.418,1.663,2.977,2.977,0,0,1-1.16,1.139,3.825,3.825,0,0,1-3.456,0Zm-33.127.291v-7.881h1.771v7.881Zm-42.73,0v-7.881h1.771v7.881Zm118.78,0H778.1v-7.881h3.415a2.774,2.774,0,0,1,1.3.279,2,2,0,0,1,.817.748,1.98,1.98,0,0,1,.282,1.039,1.721,1.721,0,0,1-.473,1.227,1.974,1.974,0,0,1-.492.375,2.324,2.324,0,0,1,.688.5,2.006,2.006,0,0,1,.547,1.43,2.175,2.175,0,0,1-.321,1.166,2.221,2.221,0,0,1-.924.821,3.2,3.2,0,0,1-1.45.3Zm1.477-1.362a1.077,1.077,0,0,0,.812-.3,1.017,1.017,0,0,0,.293-.737,1.068,1.068,0,0,0-.135-.536.964.964,0,0,0-.378-.368,1.206,1.206,0,0,0-.592-.134H779.85v2.076Zm-.147-3.4a1.1,1.1,0,0,0,.711-.217.8.8,0,0,0,.27-.664.79.79,0,0,0-.27-.653,1.1,1.1,0,0,0-.711-.219H779.85v1.753Zm-5.795,4.767-.522-1.429h-3.12l-.529,1.429h-1.837l3.156-7.881h1.6l3.122,7.881Zm-1.044-2.857-1.027-2.811-1.042,2.811Zm-11.126,2.857h-1.949V5206.56H763.8v9.058h5.042v2.2Zm-10.849,0v-3.282l-2.83-4.562v1.492h-2.491v6.353h-1.77v-6.353h-2.492v-1.528h8.783l1.7,2.877,1.7-2.877h2.006l-2.829,4.53v3.351ZM753.922,5213.934Zm-21.093,3.885-.522-1.429h-3.121l-.529,1.429H726.82l3.157-7.881h1.6l3.123,7.881Zm-1.044-2.857-1.028-2.813-1.042,2.813Zm-9.948,2.857h-1.353v-7.881h5.66v1.507h-3.891v1.619h3.551v1.461h-3.551v1.776H726.2v1.518Zm-8.851,0h-2.5V5206.56h4.881a4,4,0,0,1,1.859.4,2.869,2.869,0,0,1,1.168,1.069,2.824,2.824,0,0,1,.4,1.483,2.464,2.464,0,0,1-.676,1.755,2.829,2.829,0,0,1-.7.535,3.322,3.322,0,0,1,.984.709,2.862,2.862,0,0,1,.781,2.042,3.092,3.092,0,0,1-.458,1.666,3.181,3.181,0,0,1-1.32,1.172,4.577,4.577,0,0,1-2.07.431Zm2.11-1.946a1.542,1.542,0,0,0,1.159-.43,1.455,1.455,0,0,0,.419-1.053,1.5,1.5,0,0,0-.194-.766,1.382,1.382,0,0,0-.54-.526,1.729,1.729,0,0,0-.845-.191h-2.11v2.966Zm-.21-4.864a1.566,1.566,0,0,0,1.015-.312,1.147,1.147,0,0,0,.386-.948,1.13,1.13,0,0,0-.386-.934,1.572,1.572,0,0,0-1.015-.311h-1.9v2.5Zm-14.02,6.81-3.045-3.879v3.879h-1.769v-7.881h1.769v3.556l2.943-3.556h2.188l-3.22,3.75,3.333,4.13Zm-10.4,0h-1.353v-7.881h5.66v1.507h-3.889v1.619h3.551v1.461h-3.551v1.776h3.946v1.518Zm-4.644,0v-4.358l-1.726,2.663H682.93l-1.725-2.676v4.372h-1.759v-7.881h1.262l2.812,4.338,2.8-4.338H687.6v7.881ZM683.843,5214.771Zm-7.113,3.047-.522-1.429h-3.12l-.529,1.429H668.7l-2.375-3.249h-.185v3.249h-1.769v-7.881h3.246a3.092,3.092,0,0,1,1.387.295,2.316,2.316,0,0,1,.936.821,2.331,2.331,0,0,1,0,2.417,2.276,2.276,0,0,1-.948.81,2.877,2.877,0,0,1-.746.233l2.5,3.238,3.129-7.814h1.6l3.122,7.881Zm-1.044-2.857-1.027-2.811-1.042,2.811Zm-8.279-1.687a1.154,1.154,0,0,0,.817-.267,1.04,1.04,0,0,0,.005-1.429,1.107,1.107,0,0,0-.812-.28h-1.274v1.976Zm-10.485,4.544-4.348-5.541v5.541h-2.529V5206.56h2.529v5.078l4.2-5.078H659.9l-4.6,5.359,4.761,5.9Z" fill="#333"/>
      <path id="KBL" d="M759.666,5197.884h-1.559v-57.951h2.771V5195.4H793.6v2.486Zm-53.066,0H703.83v-57.951h20.95a20.443,20.443,0,0,1,8.7,1.715,13.273,13.273,0,0,1,5.712,4.885,13.847,13.847,0,0,1,2.035,7.63,14.353,14.353,0,0,1-2.6,8.7,13.1,13.1,0,0,1-5.689,4.364,15.84,15.84,0,0,1,7.811,5.023,14.711,14.711,0,0,1,3.333,9.688,15.076,15.076,0,0,1-2.338,8.4,15.321,15.321,0,0,1-6.579,5.571,23.613,23.613,0,0,1-10.042,1.973Zm18.958-2.486q7.1,0,11.383-3.686a12.252,12.252,0,0,0,4.285-9.773,12.656,12.656,0,0,0-7.012-11.66,16.272,16.272,0,0,0-7.618-1.714h-20V5195.4Zm.605-29.146q5.714,0,9-3.214a11.615,11.615,0,0,0,3.289-8.7,10.885,10.885,0,0,0-3.722-8.745q-3.724-3.17-9.955-3.171H706.6v23.832Zm-37.829,31.633-36.1-29.4v29.4h-2.771v-57.951h2.771v27.046l35.319-27.046H691.8l-36.339,27.759,37.206,30.192Z" fill="#333"/>
    </g>
    <path id="Color_Overlay" data-name="Color Overlay" d="M787.466,5217.641a4.15,4.15,0,0,1-1.336-.871,3.947,3.947,0,0,1-.892-1.3,4.239,4.239,0,0,1,0-3.21,3.985,3.985,0,0,1,2.205-2.149,4.618,4.618,0,0,1,3.314,0,4.092,4.092,0,0,1,1.331.859,3.936,3.936,0,0,1,.884,1.295,4.251,4.251,0,0,1,0,3.215,3.968,3.968,0,0,1-.879,1.3,4.067,4.067,0,0,1-1.325.865,4.27,4.27,0,0,1-1.64.313A4.328,4.328,0,0,1,787.466,5217.641Zm.394-5.933a2.1,2.1,0,0,0-.829.859,2.745,2.745,0,0,0-.293,1.3,2.917,2.917,0,0,0,.17,1.016,2.278,2.278,0,0,0,.479.787,2.067,2.067,0,0,0,.749.508,2.554,2.554,0,0,0,.969.179,2.429,2.429,0,0,0,1.247-.313,2.126,2.126,0,0,0,.828-.876,2.772,2.772,0,0,0,.293-1.3,2.865,2.865,0,0,0-.169-1.01,2.248,2.248,0,0,0-.485-.782,2.111,2.111,0,0,0-.749-.5,2.6,2.6,0,0,0-.965-.174A2.464,2.464,0,0,0,787.86,5211.708Zm-50.933,5.822a2.992,2.992,0,0,1-1.172-1.145,3.261,3.261,0,0,1-.423-1.669v-4.777h1.781v4.878a1.588,1.588,0,0,0,.2.816,1.364,1.364,0,0,0,.558.529,1.673,1.673,0,0,0,.783.185,1.622,1.622,0,0,0,.79-.185,1.372,1.372,0,0,0,.536-.524,1.6,1.6,0,0,0,.2-.811v-4.889h1.781v4.789a3.268,3.268,0,0,1-.418,1.663,2.977,2.977,0,0,1-1.16,1.139,3.825,3.825,0,0,1-3.456,0Zm-33.127.291v-7.881h1.771v7.881Zm-42.73,0v-7.881h1.771v7.881Zm118.78,0H778.1v-7.881h3.415a2.774,2.774,0,0,1,1.3.279,2,2,0,0,1,.817.748,1.98,1.98,0,0,1,.282,1.039,1.721,1.721,0,0,1-.473,1.227,1.968,1.968,0,0,1-.492.375,2.318,2.318,0,0,1,.689.5,2.006,2.006,0,0,1,.547,1.43,2.175,2.175,0,0,1-.321,1.166,2.221,2.221,0,0,1-.924.821,3.2,3.2,0,0,1-1.45.3Zm0-1.362h1.477a1.077,1.077,0,0,0,.812-.3,1.017,1.017,0,0,0,.293-.737,1.068,1.068,0,0,0-.135-.536.964.964,0,0,0-.378-.368,1.206,1.206,0,0,0-.592-.134H779.85Zm0-3.4h1.331a1.1,1.1,0,0,0,.711-.217.8.8,0,0,0,.27-.664.79.79,0,0,0-.27-.653,1.1,1.1,0,0,0-.711-.219H779.85Zm-4.464,4.767-.523-1.429h-3.119l-.529,1.429h-1.837l3.156-7.881h1.6l3.122,7.881Zm-3.113-2.857h2.069l-1.027-2.812Zm-9.057,2.857h-1.949V5206.56H763.8v9.058h5.042v2.2Zm-10.849,0v-3.282l-2.83-4.563v1.493h-2.491v6.353h-1.77v-6.353h-2.492v-1.528h8.783l1.7,2.877,1.7-2.877h2.006l-2.829,4.53v3.351Zm-19.537,0-.522-1.429h-3.121l-.529,1.429H726.82l3.157-7.881h1.6l3.123,7.881Zm-3.114-2.857h2.07l-1.028-2.813Zm-7.878,2.857h-1.353v-7.881h5.66v1.507h-3.891v1.619h3.551v1.461h-3.551v1.776H726.2v1.518Zm-8.851,0h-2.5V5206.56h4.881a4,4,0,0,1,1.859.4,2.869,2.869,0,0,1,1.168,1.069,2.824,2.824,0,0,1,.4,1.483,2.464,2.464,0,0,1-.676,1.755,2.866,2.866,0,0,1-.7.536,3.331,3.331,0,0,1,.983.708,2.862,2.862,0,0,1,.781,2.042,3.092,3.092,0,0,1-.458,1.666,3.181,3.181,0,0,1-1.32,1.172,4.577,4.577,0,0,1-2.07.431Zm0-1.946h2.11a1.542,1.542,0,0,0,1.159-.43,1.455,1.455,0,0,0,.419-1.053,1.5,1.5,0,0,0-.194-.766,1.382,1.382,0,0,0-.54-.526,1.729,1.729,0,0,0-.845-.191h-2.11Zm0-4.864h1.9a1.566,1.566,0,0,0,1.015-.312,1.147,1.147,0,0,0,.386-.948,1.13,1.13,0,0,0-.386-.934,1.572,1.572,0,0,0-1.015-.311h-1.9Zm-12.12,6.81-3.045-3.879v3.879h-1.769v-7.881h1.769v3.556l2.943-3.556h2.188l-3.22,3.75,3.333,4.13Zm-10.4,0h-1.353v-7.881h5.66v1.507h-3.889v1.619h3.551v1.461h-3.551v1.776h3.946v1.518Zm-4.644,0v-4.358l-1.726,2.662H682.93l-1.725-2.675v4.371h-1.759v-7.881h1.262l2.813,4.337,2.8-4.337H687.6v7.881Zm-9.1,0-.523-1.429h-3.119l-.529,1.429H668.7l-2.375-3.249h-.185v3.249h-1.769v-7.881h3.246a3.092,3.092,0,0,1,1.387.295,2.316,2.316,0,0,1,.936.821,2.331,2.331,0,0,1,0,2.417,2.276,2.276,0,0,1-.948.81,2.867,2.867,0,0,1-.745.233l2.5,3.238,3.13-7.814h1.6l3.122,7.881Zm-3.113-2.857h2.069l-1.027-2.812Zm-7.474-1.687h1.264a1.154,1.154,0,0,0,.817-.267,1.04,1.04,0,0,0,.005-1.429,1.107,1.107,0,0,0-.812-.28h-1.274Zm-9.222,4.544-4.348-5.541v5.541h-2.529V5206.56h2.529v5.078l4.2-5.078H659.9l-4.6,5.358,4.761,5.9Zm102.745-19.935h-1.558v-57.951h2.77V5195.4H793.6v2.487Zm-53.065,0H703.83v-57.951h20.95a20.43,20.43,0,0,1,8.7,1.715,13.263,13.263,0,0,1,5.712,4.885,13.848,13.848,0,0,1,2.035,7.63,14.353,14.353,0,0,1-2.6,8.7,13.1,13.1,0,0,1-5.69,4.365,15.848,15.848,0,0,1,7.811,5.022,14.717,14.717,0,0,1,3.333,9.688,15.081,15.081,0,0,1-2.338,8.4,15.314,15.314,0,0,1-6.579,5.572,23.606,23.606,0,0,1-10.042,1.972Zm0-2.487h18.958q7.1,0,11.382-3.685a12.251,12.251,0,0,0,4.285-9.773,12.654,12.654,0,0,0-7.011-11.66,16.281,16.281,0,0,0-7.618-1.714h-20Zm0-29.146h19.563q5.714,0,9-3.214a11.615,11.615,0,0,0,3.29-8.7,10.887,10.887,0,0,0-3.722-8.745q-3.724-3.171-9.955-3.172H706.6Zm-18.267,31.633-36.1-29.4v29.4h-2.771v-57.951h2.771v27.046l35.319-27.046h4.24l-36.34,27.758,37.206,30.192Z" fill="#fff"/>
  </g>
</svg>
