<svg xmlns="http://www.w3.org/2000/svg" width="96.064" height="52.51" viewBox="0 0 96.064 52.51">
  <g id="ロゴ" transform="translate(-208.398 -18.937)">
    <g id="ロゴ-2" data-name="ロゴ">
      <path id="Kirameki_Beauty_Labo" data-name="Kirameki Beauty Labo" d="M300.373,71.237a2.781,2.781,0,0,1-.89-.587,2.655,2.655,0,0,1-.594-.875,2.888,2.888,0,0,1,0-2.161,2.674,2.674,0,0,1,1.47-1.446,3.062,3.062,0,0,1,2.209,0,2.72,2.72,0,0,1,.887.579,2.656,2.656,0,0,1,.59.872,2.884,2.884,0,0,1,0,2.164,2.673,2.673,0,0,1-.586.871,2.73,2.73,0,0,1-.884.583,2.833,2.833,0,0,1-1.093.21A2.883,2.883,0,0,1,300.373,71.237Zm.264-3.994a1.415,1.415,0,0,0-.553.579,1.854,1.854,0,0,0-.2.876,1.994,1.994,0,0,0,.112.684,1.551,1.551,0,0,0,.32.529,1.4,1.4,0,0,0,.5.342,1.686,1.686,0,0,0,.646.12,1.6,1.6,0,0,0,.831-.21,1.433,1.433,0,0,0,.552-.59,1.881,1.881,0,0,0,.2-.875,1.938,1.938,0,0,0-.112-.68,1.513,1.513,0,0,0-.323-.526,1.4,1.4,0,0,0-.5-.338,1.709,1.709,0,0,0-.643-.116A1.624,1.624,0,0,0,300.637,67.243ZM266.69,71.161a2.009,2.009,0,0,1-.781-.77,2.215,2.215,0,0,1-.282-1.123V66.052h1.187v3.283a1.077,1.077,0,0,0,.135.549.914.914,0,0,0,.372.356,1.11,1.11,0,0,0,.523.124,1.073,1.073,0,0,0,.526-.124.916.916,0,0,0,.357-.353,1.081,1.081,0,0,0,.131-.545V66.052h1.187v3.224a2.219,2.219,0,0,1-.278,1.119,2,2,0,0,1-.774.767,2.523,2.523,0,0,1-2.3,0Zm28.608.2h-1.165v-5.3h2.276a1.859,1.859,0,0,1,.868.187,1.323,1.323,0,0,1,.733,1.2,1.167,1.167,0,0,1-.316.826,1.331,1.331,0,0,1-.327.252,1.553,1.553,0,0,1,.459.334,1.359,1.359,0,0,1,.365.962,1.47,1.47,0,0,1-.214.785,1.491,1.491,0,0,1-.616.553,2.128,2.128,0,0,1-.966.2Zm.984-.916a.719.719,0,0,0,.542-.2.69.69,0,0,0,.2-.5.717.717,0,0,0-.09-.36.655.655,0,0,0-.252-.248.8.8,0,0,0-.4-.09H295.3v1.4Zm-.1-2.292a.726.726,0,0,0,.473-.147.543.543,0,0,0,.18-.447.535.535,0,0,0-.18-.439.731.731,0,0,0-.473-.147H295.3v1.18Zm-3.862,3.208-.348-.962H289.9l-.353.962h-1.225l2.1-5.3h1.066l2.082,5.3Zm-.7-1.923-.684-1.892-.694,1.892Zm-7.415,1.923h-1.3V63.779H284.6v6.1h3.36v1.481Zm-7.232,0V69.149l-1.886-3.073v1h-1.66v4.275h-1.18V67.082h-1.66v-1.03h5.854l1.131,1.937,1.131-1.937h1.337l-1.886,3.05v2.255ZM278.017,68.742Zm-14.059,2.614-.348-.962h-2.079l-.353.962h-1.225l2.1-5.3h1.067l2.081,5.3Zm-.7-1.923-.684-1.892-.694,1.892Zm-6.63,1.923h-.9v-5.3H259.5v1.014H256.91v1.09h2.367v.984H256.91v1.2h2.63v1.021Zm-5.9,0H249.07V63.779h3.253a2.632,2.632,0,0,1,1.239.268,1.885,1.885,0,0,1,1.047,1.717,1.667,1.667,0,0,1-.451,1.181,1.893,1.893,0,0,1-.468.36,2.213,2.213,0,0,1,.656.477,1.943,1.943,0,0,1,.52,1.374,2.1,2.1,0,0,1-.306,1.122,2.13,2.13,0,0,1-.88.788,3.025,3.025,0,0,1-1.379.29Zm1.407-1.309a1.02,1.02,0,0,0,.772-.29.982.982,0,0,0,.279-.708,1.016,1.016,0,0,0-.129-.516.923.923,0,0,0-.359-.354,1.136,1.136,0,0,0-.563-.129h-1.407v2ZM252,66.774a1.039,1.039,0,0,0,.676-.21.774.774,0,0,0,.257-.639.763.763,0,0,0-.257-.628,1.039,1.039,0,0,0-.676-.209h-1.267v1.686Zm-9.345,4.583-2.029-2.611v2.611h-1.18v-5.3h1.18v2.394l1.961-2.394h1.458L241.9,68.576l2.221,2.78Zm-6.927,0h-.9v-5.3H238.6v1.014h-2.592v1.09h2.367v.984h-2.367v1.2h2.63v1.021Zm-3.1,0V68.424l-1.149,1.791H230.7l-1.149-1.8v2.943H228.38v-5.3h.842l1.874,2.919,1.867-2.919h.85v5.3ZM231.31,69.305Zm-4.741,2.051-.348-.962h-2.079l-.353.962h-2.57l-1.581-2.186h-.124v2.186h-1.18v-5.3H220.5a2.049,2.049,0,0,1,.924.2,1.539,1.539,0,0,1,.624.553,1.582,1.582,0,0,1,0,1.626,1.5,1.5,0,0,1-.632.545,1.909,1.909,0,0,1-.5.158l1.665,2.18,2.086-5.26h1.066l2.082,5.3Zm-.7-1.923-.684-1.892-.694,1.892ZM220.354,68.3a.768.768,0,0,0,.545-.18.707.707,0,0,0,0-.962.733.733,0,0,0-.541-.188h-.85V68.3Zm-6.988,3.058-2.9-3.729v3.729h-1.686V63.779h1.686V67.2l2.8-3.418h2.082l-3.066,3.607,3.174,3.971Zm31.243-.006v-5.3h1.18v5.3Zm-28.48,0v-5.3h1.181v5.3Z" fill="#333"/>
      <path id="KBL" d="M281.845,57.939h-1.039v-39h1.846V56.265h21.81v1.674Zm-35.367,0h-1.847v-39h13.963a13.5,13.5,0,0,1,5.8,1.154,8.864,8.864,0,0,1,3.808,3.289,9.39,9.39,0,0,1,1.355,5.135,9.73,9.73,0,0,1-1.731,5.856,8.742,8.742,0,0,1-3.792,2.937,10.554,10.554,0,0,1,5.206,3.381,9.966,9.966,0,0,1,2.221,6.52,9.933,9.933,0,0,1-5.943,9.4,15.614,15.614,0,0,1-6.693,1.327Zm12.635-1.674a11.159,11.159,0,0,0,7.587-2.48,8.282,8.282,0,0,0,2.856-6.577,8.526,8.526,0,0,0-4.673-7.847,10.756,10.756,0,0,0-5.078-1.154H246.478V56.265Zm.4-19.616a8.171,8.171,0,0,0,6-2.164,7.852,7.852,0,0,0,2.192-5.855,7.355,7.355,0,0,0-2.481-5.885,9.825,9.825,0,0,0-6.635-2.135H246.478V36.649ZM234.3,57.939,210.245,38.152V57.939H208.4v-39h1.847v18.2l23.54-18.2h2.827L212.39,37.619l24.8,20.32Z" fill="#333"/>
    </g>
    <path id="Color_Overlay" data-name="Color Overlay" d="M300.373,71.237a2.781,2.781,0,0,1-.89-.587,2.655,2.655,0,0,1-.594-.875,2.888,2.888,0,0,1,0-2.161,2.674,2.674,0,0,1,1.47-1.446,3.062,3.062,0,0,1,2.209,0,2.72,2.72,0,0,1,.887.579,2.656,2.656,0,0,1,.59.872,2.884,2.884,0,0,1,0,2.164,2.673,2.673,0,0,1-.586.871,2.73,2.73,0,0,1-.884.583,2.833,2.833,0,0,1-1.093.21A2.883,2.883,0,0,1,300.373,71.237Zm.264-3.994a1.415,1.415,0,0,0-.553.579,1.854,1.854,0,0,0-.2.876,1.994,1.994,0,0,0,.112.684,1.551,1.551,0,0,0,.32.529,1.4,1.4,0,0,0,.5.342,1.686,1.686,0,0,0,.646.12,1.6,1.6,0,0,0,.831-.21,1.433,1.433,0,0,0,.552-.59,1.881,1.881,0,0,0,.2-.875,1.938,1.938,0,0,0-.112-.68,1.513,1.513,0,0,0-.323-.526,1.4,1.4,0,0,0-.5-.338,1.709,1.709,0,0,0-.643-.116A1.624,1.624,0,0,0,300.637,67.243ZM266.69,71.161a2.009,2.009,0,0,1-.781-.77,2.215,2.215,0,0,1-.282-1.123V66.052h1.187v3.283a1.077,1.077,0,0,0,.135.549.914.914,0,0,0,.372.356,1.11,1.11,0,0,0,.523.124,1.073,1.073,0,0,0,.526-.124.916.916,0,0,0,.357-.353,1.081,1.081,0,0,0,.131-.545V66.052h1.187v3.224a2.219,2.219,0,0,1-.278,1.119,2,2,0,0,1-.774.767,2.523,2.523,0,0,1-2.3,0Zm28.608.2h-1.165v-5.3h2.276a1.859,1.859,0,0,1,.868.187,1.323,1.323,0,0,1,.733,1.2,1.167,1.167,0,0,1-.316.826,1.326,1.326,0,0,1-.328.252,1.555,1.555,0,0,1,.459.334,1.359,1.359,0,0,1,.365.962,1.47,1.47,0,0,1-.214.785,1.491,1.491,0,0,1-.616.553,2.128,2.128,0,0,1-.966.2Zm0-.916h.984a.719.719,0,0,0,.542-.2.69.69,0,0,0,.2-.5.717.717,0,0,0-.09-.36.655.655,0,0,0-.252-.248.8.8,0,0,0-.4-.09H295.3Zm0-2.292h.887a.726.726,0,0,0,.473-.147.543.543,0,0,0,.18-.447.535.535,0,0,0-.18-.439.731.731,0,0,0-.473-.147H295.3Zm-2.975,3.208-.348-.962H289.9l-.353.962h-1.225l2.1-5.3h1.066l2.082,5.3Zm-2.074-1.923h1.379l-.685-1.892Zm-6.036,1.923h-1.3V63.779H284.6v6.1h3.36v1.481Zm-7.232,0V69.15l-1.886-3.073v1h-1.66v4.275h-1.18V67.082h-1.66v-1.03h5.854l1.13,1.937,1.131-1.937h1.337l-1.886,3.05v2.254Zm-13.022,0-.348-.962h-2.079l-.353.962h-1.225l2.1-5.3h1.067l2.081,5.3Zm-2.074-1.923h1.379l-.685-1.892Zm-5.252,1.923h-.9v-5.3H259.5v1.014H256.91v1.09h2.367v.984H256.91v1.2h2.63v1.021Zm-5.9,0H249.07V63.779h3.253a2.632,2.632,0,0,1,1.239.268,1.885,1.885,0,0,1,1.047,1.717,1.667,1.667,0,0,1-.451,1.181,1.874,1.874,0,0,1-.468.36,2.225,2.225,0,0,1,.656.477,1.943,1.943,0,0,1,.52,1.374,2.1,2.1,0,0,1-.306,1.122,2.13,2.13,0,0,1-.88.788,3.025,3.025,0,0,1-1.379.29Zm0-1.309h1.407a1.02,1.02,0,0,0,.772-.29.982.982,0,0,0,.279-.708,1.016,1.016,0,0,0-.129-.516.923.923,0,0,0-.359-.354,1.136,1.136,0,0,0-.563-.129h-1.407Zm0-3.273H252a1.039,1.039,0,0,0,.676-.21.774.774,0,0,0,.257-.639.763.763,0,0,0-.257-.628,1.039,1.039,0,0,0-.676-.209h-1.267Zm-8.077,4.583-2.029-2.611v2.611h-1.18v-5.3h1.18v2.394l1.961-2.394h1.458L241.9,68.576l2.221,2.78Zm-6.927,0h-.9v-5.3H238.6v1.014h-2.592v1.09h2.367v.984h-2.367v1.2h2.63v1.021Zm-3.1,0V68.424l-1.149,1.79H230.7l-1.149-1.8v2.943H228.38v-5.3h.842l1.875,2.92,1.867-2.92h.85v5.3Zm-6.063,0-.348-.962h-2.079l-.353.962h-2.57l-1.581-2.186h-.124v2.186h-1.18v-5.3H220.5a2.049,2.049,0,0,1,.924.2,1.539,1.539,0,0,1,.624.553,1.582,1.582,0,0,1,0,1.626,1.5,1.5,0,0,1-.632.545,1.91,1.91,0,0,1-.5.157l1.665,2.18,2.086-5.26h1.066l2.082,5.3Zm-2.075-1.923h1.379l-.685-1.892ZM219.513,68.3h.841a.768.768,0,0,0,.545-.18.707.707,0,0,0,0-.962.733.733,0,0,0-.541-.188h-.85Zm-6.146,3.058-2.9-3.729v3.729h-1.686V63.779h1.686V67.2l2.8-3.418h2.082l-3.066,3.606,3.174,3.972Zm31.243-.006v-5.3h1.18v5.3Zm-28.48,0v-5.3h1.181v5.3Zm65.715-13.411h-1.039v-39h1.846V56.265h21.81v1.674Zm-35.367,0h-1.847v-39h13.963a13.5,13.5,0,0,1,5.8,1.154,8.864,8.864,0,0,1,3.808,3.289,9.39,9.39,0,0,1,1.355,5.135,9.73,9.73,0,0,1-1.731,5.856,8.745,8.745,0,0,1-3.792,2.938,10.552,10.552,0,0,1,5.206,3.38,9.966,9.966,0,0,1,2.221,6.52,9.933,9.933,0,0,1-5.943,9.4,15.614,15.614,0,0,1-6.693,1.327Zm0-1.674h12.635a11.159,11.159,0,0,0,7.587-2.48,8.282,8.282,0,0,0,2.856-6.577,8.526,8.526,0,0,0-4.673-7.847,10.756,10.756,0,0,0-5.078-1.154H246.478Zm0-19.616h13.039a8.171,8.171,0,0,0,6-2.164,7.852,7.852,0,0,0,2.192-5.855,7.355,7.355,0,0,0-2.481-5.885,9.825,9.825,0,0,0-6.635-2.135H246.478ZM234.3,57.939,210.245,38.153V57.939H208.4v-39h1.847v18.2l23.54-18.2h2.827L212.39,37.619l24.8,20.32Z" fill="#fa7da3"/>
  </g>
</svg>
